<svg width="70" height="70" viewBox="0 0 70 70" fill="none" xmlns="http://www.w3.org/2000/svg">
<g id="healthicons:group-discussion-meetingx3">
<g id="Group">
<path id="Vector" d="M26.9792 37.9166C26.9792 41.1395 24.3688 43.7499 21.1458 43.7499C17.9229 43.7499 15.3125 41.1395 15.3125 37.9166C15.3125 34.6937 17.9229 32.0833 21.1458 32.0833C24.3688 32.0833 26.9792 34.6937 26.9792 37.9166Z" fill="#F8F8F8"/>
<path id="Vector_2" fill-rule="evenodd" clip-rule="evenodd" d="M21.1458 40.8333C21.9194 40.8333 22.6612 40.526 23.2082 39.979C23.7552 39.432 24.0625 38.6901 24.0625 37.9166C24.0625 37.143 23.7552 36.4012 23.2082 35.8542C22.6612 35.3072 21.9194 34.9999 21.1458 34.9999C20.3723 34.9999 19.6304 35.3072 19.0834 35.8542C18.5365 36.4012 18.2292 37.143 18.2292 37.9166C18.2292 38.6901 18.5365 39.432 19.0834 39.979C19.6304 40.526 20.3723 40.8333 21.1458 40.8333ZM21.1458 43.7499C24.3688 43.7499 26.9792 41.1395 26.9792 37.9166C26.9792 34.6937 24.3688 32.0833 21.1458 32.0833C17.9229 32.0833 15.3125 34.6937 15.3125 37.9166C15.3125 41.1395 17.9229 43.7499 21.1458 43.7499Z" fill="#F8F8F8"/>
<path id="Vector_3" d="M8.75 53.2949C8.75 48.8878 17.0085 46.6667 21.1458 46.6667C25.2831 46.6667 33.5417 48.8878 33.5417 53.2949V61.2501H8.75V53.2949Z" fill="#F8F8F8"/>
<path id="Vector_4" fill-rule="evenodd" clip-rule="evenodd" d="M12.1537 52.4753C11.6929 52.9303 11.6667 53.1913 11.6667 53.2963V58.3334H30.625V53.2949C30.625 53.1928 30.5987 52.9303 30.1379 52.4753C29.6508 51.9955 28.8473 51.4807 27.7462 51.0097C25.5296 50.0603 22.8229 49.5834 21.1458 49.5834C19.4687 49.5834 16.7606 50.0603 14.5454 51.0097C13.4444 51.4807 12.6408 51.9955 12.1537 52.4753ZM21.1458 46.6667C17.0085 46.6667 8.75 48.8878 8.75 53.2949V61.2501H33.5417V53.2949C33.5417 48.8878 25.2831 46.6667 21.1458 46.6667Z" fill="#F8F8F8"/>
<path id="Vector_5" d="M54.6875 37.9166C54.6875 41.1395 52.0771 43.7499 48.8542 43.7499C45.6313 43.7499 43.0208 41.1395 43.0208 37.9166C43.0208 34.6937 45.6313 32.0833 48.8542 32.0833C52.0771 32.0833 54.6875 34.6937 54.6875 37.9166Z" fill="#F8F8F8"/>
<path id="Vector_6" fill-rule="evenodd" clip-rule="evenodd" d="M48.8542 40.8333C49.6277 40.8333 50.3696 40.526 50.9166 39.979C51.4636 39.432 51.7708 38.6901 51.7708 37.9166C51.7708 37.143 51.4636 36.4012 50.9166 35.8542C50.3696 35.3072 49.6277 34.9999 48.8542 34.9999C48.0806 34.9999 47.3388 35.3072 46.7918 35.8542C46.2448 36.4012 45.9375 37.143 45.9375 37.9166C45.9375 38.6901 46.2448 39.432 46.7918 39.979C47.3388 40.526 48.0806 40.8333 48.8542 40.8333ZM48.8542 43.7499C52.0771 43.7499 54.6875 41.1395 54.6875 37.9166C54.6875 34.6937 52.0771 32.0833 48.8542 32.0833C45.6313 32.0833 43.0208 34.6937 43.0208 37.9166C43.0208 41.1395 45.6313 43.7499 48.8542 43.7499Z" fill="#F8F8F8"/>
<path id="Vector_7" d="M40.8333 35.0001C40.8333 38.223 38.2229 40.8334 35 40.8334C31.7771 40.8334 29.1667 38.223 29.1667 35.0001C29.1667 31.7772 31.7771 29.1667 35 29.1667C38.2229 29.1667 40.8333 31.7772 40.8333 35.0001Z" fill="#F8F8F8"/>
<path id="Vector_8" fill-rule="evenodd" clip-rule="evenodd" d="M35 37.9167C35.7735 37.9167 36.5154 37.6095 37.0624 37.0625C37.6094 36.5155 37.9167 35.7736 37.9167 35.0001C37.9167 34.2265 37.6094 33.4847 37.0624 32.9377C36.5154 32.3907 35.7735 32.0834 35 32.0834C34.2264 32.0834 33.4846 32.3907 32.9376 32.9377C32.3906 33.4847 32.0833 34.2265 32.0833 35.0001C32.0833 35.7736 32.3906 36.5155 32.9376 37.0625C33.4846 37.6095 34.2264 37.9167 35 37.9167ZM35 40.8334C38.2229 40.8334 40.8333 38.223 40.8333 35.0001C40.8333 31.7772 38.2229 29.1667 35 29.1667C31.7771 29.1667 29.1667 31.7772 29.1667 35.0001C29.1667 38.223 31.7771 40.8334 35 40.8334Z" fill="#F8F8F8"/>
<path id="Vector_9" d="M33.5417 18.7148C33.5417 16.8455 32.7991 15.0528 31.4773 13.731C30.1555 12.4092 28.3628 11.6667 26.4935 11.6667H21.8721C19.9598 11.6636 18.1229 12.4121 16.7575 13.7509C15.392 15.0897 14.6074 16.9115 14.5728 18.8234C14.5382 20.7354 15.2563 22.5843 16.5724 23.9717C17.8884 25.359 19.697 26.1736 21.6081 26.2398L21.875 26.25V29.1667C21.875 29.1667 33.5417 27.4648 33.5417 18.7148ZM37.9167 16.3858C37.9167 14.3607 38.7211 12.4185 40.1531 10.9865C41.5851 9.55449 43.5273 8.75 45.5525 8.75H53.9583C55.8922 8.75 57.7469 9.51823 59.1143 10.8857C60.4818 12.2531 61.25 14.1078 61.25 16.0417C61.25 17.9755 60.4818 19.8302 59.1143 21.1977C57.7469 22.5651 55.8922 23.3333 53.9583 23.3333H51.0417V27.7083C51.0417 27.7083 37.9167 25.865 37.9167 16.3858ZM36.4583 53.2948C36.4583 48.8877 44.7169 46.6667 48.8542 46.6667C52.9914 46.6667 61.25 48.8877 61.25 53.2948V61.25H36.4583V53.2948Z" fill="#F8F8F8"/>
<path id="Vector_10" fill-rule="evenodd" clip-rule="evenodd" d="M39.8621 52.4752C39.4012 52.9302 39.375 53.1913 39.375 53.2963V58.3333H58.3333V53.2948C58.3333 53.1927 58.3071 52.9302 57.8462 52.4752C57.3592 51.9954 56.5556 51.4806 55.4546 51.0096C53.2379 50.0602 50.5312 49.5833 48.8542 49.5833C47.1771 49.5833 44.4689 50.0602 42.2537 51.0096C41.1527 51.4806 40.3492 51.9954 39.8621 52.4752ZM48.8542 46.6667C44.7169 46.6667 36.4583 48.8877 36.4583 53.2948V61.25H61.25V53.2948C61.25 48.8877 52.9914 46.6667 48.8542 46.6667ZM35 50.3781C35 47.9325 32.3064 46.1592 29.1594 45.0654C30.9857 44.2024 32.98 43.7533 35 43.75C37.0199 43.7533 39.0143 44.2024 40.8406 45.0654C37.6935 46.1592 35 47.9325 35 50.3781Z" fill="#F8F8F8"/>
<path id="Vector_11" fill-rule="evenodd" clip-rule="evenodd" d="M35 50.3782C35 49.076 35.7642 47.9632 36.9542 47.043L37.1598 46.8899C38.1762 46.152 39.4639 45.5439 40.8406 45.067C39.4747 44.423 38.0126 44.0067 36.5123 43.8347C35.5072 43.7218 34.4927 43.7218 33.4877 43.8347C31.9875 44.0062 30.5254 44.422 29.1594 45.0655C30.5346 45.5439 31.8237 46.152 32.8387 46.8885C32.9087 46.9395 32.9773 46.9905 33.0444 47.043C34.2358 47.9618 35 49.076 35 50.3782Z" fill="#F8F8F8"/>
</g>
</g>
</svg>
