<svg width="150" height="35" viewBox="0 0 150 35" fill="none" xmlns="http://www.w3.org/2000/svg">
<g id="logo-ycombinator.svg" clip-path="url(#clip0_133_143)">
<g id="Clip path group">
<mask id="mask0_133_143" style="mask-type:luminance" maskUnits="userSpaceOnUse" x="0" y="0" width="150" height="35">
<g id="clip0_187_2449">
<path id="Vector" d="M150 -2.28746e-08L0 0L5.33105e-09 34.9584L150 34.9584L150 -2.28746e-08Z" fill="white"/>
</g>
</mask>
<g mask="url(#mask0_133_143)">
<g id="Group">
<path id="Vector_2" d="M31.0345 -4.73267e-09L0 0L5.33105e-09 34.9584L31.0345 34.9584L31.0345 -4.73267e-09Z" fill="black"/>
<path id="Vector_3" d="M14.4828 19.8103L9.10345 8.50708L11.5862 8.50708L14.6897 15.6153C14.6897 15.7318 14.7931 15.8483 14.8966 15.9649C15 16.0814 15 16.1979 15.1035 16.431L15.2069 16.5475L15.2069 16.6641C15.3103 16.8971 15.3103 17.0136 15.4138 17.2467C15.5172 17.3632 15.5172 17.5963 15.6207 17.7128C15.7241 17.3632 15.931 17.1302 16.0345 16.6641C16.1379 16.3144 16.3448 15.9649 16.5517 15.6153L19.6552 8.50708L21.931 8.50708L16.5517 19.9268L16.5517 27.1516L14.4828 27.1516L14.4828 19.8103Z" fill="white"/>
<path id="Vector_4" d="M45.2069 6.75903C46.7586 6.75903 48.1034 7.22514 49.1379 8.15734L48.1034 9.55571C47.1724 8.8565 46.2414 8.3904 45.1034 8.3904C43.3448 8.3904 42 9.43919 41.2759 11.4201C40.8621 12.5854 40.6552 14.1003 40.6552 16.0813C40.6552 17.5961 40.8621 18.8779 41.1724 19.8102C42 22.0242 43.3448 23.073 45.4138 23.073C46.5517 23.073 47.5862 22.7234 48.5172 21.9076L49.5517 23.4225C48.2069 24.3547 46.7586 24.8208 45.2069 24.8208C43.3448 24.8208 41.7931 24.0052 40.5517 22.2572C39.3103 20.6259 38.7931 18.4118 38.7931 15.7317C38.7931 13.0516 39.4138 10.954 40.6552 9.20614C41.7931 7.69124 43.3448 6.75903 45.2069 6.75903Z" fill="black"/>
<path id="Vector_5" d="M51.1035 18.295C51.1035 16.1975 51.5173 14.5661 52.4483 13.4009C53.3794 12.2356 54.5175 11.5364 55.9655 11.5364C57.6209 11.5364 58.9655 12.2356 59.8966 13.7504C60.6209 14.9157 60.9311 16.5471 60.9311 18.528C60.9311 20.8586 60.3102 22.7231 59.1723 23.8884C58.3447 24.704 57.3102 25.1701 56.0689 25.1701C54.5175 25.1701 53.3794 24.5875 52.4483 23.3057C51.5173 22.1404 51.1035 20.3925 51.1035 18.295ZM58.3447 14.9157C57.8277 13.867 57.1034 13.2843 55.9655 13.2843C54.8277 13.2843 54.1034 13.7504 53.5864 14.6826C53.1725 15.3818 53.069 16.5471 53.069 18.0619C53.069 20.0429 53.2759 21.4413 53.7932 22.2569C54.3102 23.0727 55.0345 23.5388 56.0689 23.5388C57.3102 23.5388 58.1379 22.8396 58.552 21.5578C58.7588 20.8586 58.8622 19.9264 58.8622 18.7611C58.9655 17.0132 58.7588 15.7314 58.3447 14.9157Z" fill="black"/>
<path id="Vector_6" d="M64.2413 15.1487C64.2413 13.867 64.1379 12.8182 63.8277 12.0025L65.5865 11.5364C65.8966 12.119 66 12.8182 66 13.4009L66 13.5174C66.4136 13.0513 66.8277 12.5852 67.4486 12.2356C68.1723 11.7694 68.7932 11.5364 69.4136 11.5364C70.3447 11.5364 71.1723 12.0025 71.6898 12.8182C71.7932 13.0513 72 13.4009 72.1034 13.6339C73.3447 12.2356 74.4831 11.5364 75.7243 11.5364C76.552 11.5364 77.2757 11.886 77.7932 12.4686C78.3102 13.1678 78.6209 13.9835 78.6209 14.9157L78.6209 24.5875L76.7588 24.5875L76.7588 15.0322C76.7588 13.7504 76.2413 13.1678 75.3102 13.1678C74.7932 13.1678 74.1723 13.4009 73.6554 13.867C73.4486 14.1 73.0345 14.4496 72.5175 14.9157L72.3102 15.1487L72.3102 24.5875L70.3447 24.5875L70.3447 15.4983C70.3447 14.6826 70.2413 14.1 70.0345 13.867C69.7243 13.5174 69.4136 13.4009 68.8966 13.4009C68.0689 13.4009 67.1379 13.9835 66 15.1487L66 24.704L64.2413 24.704L64.2413 15.1487Z" fill="black"/>
<path id="Vector_7" d="M81.8277 6.29238L83.6898 5.82629C83.8966 6.75854 84 7.80728 84 9.08906L84 12.0023C84 12.7014 84 13.1675 84 13.4006C85.0345 12.2353 86.1723 11.6527 87.3102 11.6527C88.6554 11.6527 89.7932 12.2353 90.5175 13.4006C91.3447 14.5659 91.7588 16.1973 91.7588 18.1783C91.7588 20.2758 91.3447 21.9071 90.5175 23.1889C89.6898 24.4708 88.552 25.0534 87.2068 25.0534C86.5864 25.0534 86.069 24.9369 85.4481 24.5873C84.8277 24.2377 84.4136 23.8881 84.1034 23.422C84 24.0047 83.8966 24.4708 83.7932 24.8204L82.0345 24.8204C82.2413 24.2377 82.3447 23.1889 82.3447 21.5576L82.3447 9.32211C82.2413 7.9238 82.1379 6.87507 81.8277 6.29238ZM84.8277 14.2163C84.5175 14.4494 84.2068 14.7989 84 15.1485L84 21.7906C84.7243 22.8394 85.6554 23.3055 86.7932 23.3055C87.7243 23.3055 88.4481 22.9559 88.8622 22.1402C89.3791 21.208 89.6898 19.9261 89.6898 18.0617C89.6898 16.4303 89.4825 15.2651 88.9656 14.5659C88.552 13.8667 87.8277 13.5172 86.7932 13.5172C86.1723 13.4006 85.4481 13.6337 84.8277 14.2163Z" fill="black"/>
<path id="Vector_8" d="M94.4481 7.92402C94.4481 7.45792 94.552 7.10834 94.8622 6.75871C95.1724 6.40913 95.4825 6.2926 95.8966 6.2926C96.3102 6.2926 96.6209 6.40913 96.9311 6.75871C97.2413 7.10834 97.3447 7.45792 97.3447 7.92402C97.3447 8.39013 97.2413 8.73971 96.9311 9.08928C96.6209 9.43886 96.3102 9.55539 95.8966 9.55539C95.4825 9.55539 95.1724 9.43886 94.8622 9.08928C94.552 8.73971 94.4481 8.39013 94.4481 7.92402ZM94.8622 24.7041L94.8622 11.886L96.7243 11.5364L96.7243 24.7041L94.8622 24.7041Z" fill="black"/>
<path id="Vector_9" d="M100.759 15.1487C100.759 14.2165 100.759 13.6339 100.655 13.4009C100.655 13.0513 100.449 12.7017 100.241 12.119L102 11.5364C102.31 12.2356 102.414 12.8182 102.414 13.5174C103.552 12.2356 104.793 11.5364 106.034 11.5364C106.655 11.5364 107.172 11.6529 107.69 12.0025C108.207 12.3521 108.621 12.8182 108.828 13.4009C109.034 13.867 109.138 14.3331 109.138 14.9157L109.138 24.704L107.379 24.704L107.379 15.9645C107.379 14.9157 107.276 14.2165 106.966 13.867C106.655 13.5174 106.241 13.2843 105.724 13.2843C105.31 13.2843 104.69 13.5174 104.069 13.867C103.449 14.2165 102.931 14.6826 102.518 15.1487L102.518 24.704L100.759 24.704L100.759 15.1487Z" fill="black"/>
<path id="Vector_10" d="M113.276 14.6826L112.345 13.2843C113.897 12.119 115.448 11.5364 117.103 11.5364C118.759 11.5364 119.793 12.2356 120.31 13.5174C120.518 13.9835 120.518 14.6826 120.518 15.7314L120.518 16.4306L120.414 20.6256C120.414 20.7421 120.414 20.9752 120.414 21.2082C120.414 21.9074 120.414 22.3735 120.518 22.7231C120.621 23.1892 120.931 23.5388 121.345 23.7718L120.414 25.1701C119.586 24.8206 119.069 24.2379 118.862 23.3057C117.828 24.471 116.69 25.0536 115.552 25.0536C114.414 25.0536 113.483 24.704 112.759 24.0049C112.138 23.4223 111.828 22.49 111.828 21.3247C111.828 19.8099 112.345 18.7611 113.379 17.9454C114.414 17.1297 115.966 16.7802 117.828 16.7802C118.138 16.7802 118.345 16.7802 118.655 16.7802L118.655 15.848C118.655 14.7992 118.552 14.1 118.241 13.867C117.828 13.4009 117.414 13.1678 116.69 13.1678C116.069 13.1678 115.345 13.4009 114.518 13.7504C114.207 13.9835 113.793 14.3331 113.276 14.6826ZM118.759 21.5578L118.862 18.1785C118.345 18.1785 118.034 18.1785 117.931 18.1785C116.276 18.1785 115.241 18.528 114.621 19.2273C114.207 19.6934 114 20.3925 114 21.3247C114 22.8396 114.621 23.6553 115.966 23.6553C117.207 23.5388 118.138 22.8396 118.759 21.5578Z" fill="black"/>
<path id="Vector_11" d="M126.414 11.8857L129.31 11.8857L128.793 13.5171L126.414 13.5171L126.414 21.7906C126.414 22.4898 126.518 22.9559 126.724 23.3055C126.931 23.5385 127.345 23.7716 127.862 23.7716C128.276 23.7716 128.69 23.6551 129 23.5385L129.207 24.8204C128.586 25.1699 127.966 25.2865 127.241 25.2865C125.483 25.2865 124.655 24.3543 124.655 22.3733L124.655 13.5171L123.103 13.5171L123.103 11.8857L124.552 11.8857L124.552 11.6527C124.552 11.4196 124.655 10.4874 124.759 8.97254L124.759 8.62296L126.621 8.15686C126.414 9.55517 126.414 10.837 126.414 11.8857Z" fill="black"/>
<path id="Vector_12" d="M131.172 18.295C131.172 16.1975 131.586 14.5661 132.517 13.4009C133.345 12.2356 134.586 11.5364 136.034 11.5364C137.69 11.5364 139.034 12.2356 139.966 13.7504C140.69 14.9157 141 16.5471 141 18.528C141 20.8586 140.379 22.7231 139.241 23.8884C138.414 24.704 137.379 25.1701 136.138 25.1701C134.586 25.1701 133.449 24.5875 132.517 23.3057C131.69 22.1404 131.172 20.3925 131.172 18.295ZM138.517 14.9157C138 13.867 137.276 13.2843 136.138 13.2843C135 13.2843 134.276 13.7504 133.759 14.6826C133.345 15.3818 133.241 16.5471 133.241 18.0619C133.241 20.0429 133.448 21.4413 133.966 22.2569C134.483 23.0727 135.207 23.5388 136.241 23.5388C137.483 23.5388 138.31 22.8396 138.724 21.5578C138.931 20.8586 139.034 19.9264 139.034 18.7611C139.034 17.0132 138.828 15.7314 138.517 14.9157Z" fill="black"/>
<path id="Vector_13" d="M144.414 14.9157C144.414 13.7504 144.31 12.8182 144 12.119L145.759 11.5364C146.069 12.2356 146.172 12.8182 146.172 13.5174L146.172 13.7504C147.103 12.3521 148.138 11.6529 149.379 11.6529C149.586 11.6529 149.793 11.6529 150 11.7694L149.276 13.9835C149.069 13.867 148.862 13.867 148.759 13.867C148.345 13.867 147.828 13.9835 147.414 14.3331C147 14.6826 146.586 15.0322 146.379 15.4984C146.276 15.848 146.172 16.3141 146.172 16.8967L146.172 24.9371L144.414 24.9371L144.414 14.9157Z" fill="black"/>
</g>
</g>
</g>
</g>
<defs>
<clipPath id="clip0_133_143">
<rect width="150" height="35" fill="white"/>
</clipPath>
</defs>
</svg>
